<?xml version="1.0" encoding="iso-8859-1"?>
<!-- Generator: Adobe Illustrator 19.0.0, SVG Export Plug-In . SVG Version: 6.00 Build 0)  -->
<svg version="1.1" id="Capa_1" xmlns="http://www.w3.org/2000/svg" xmlns:xlink="http://www.w3.org/1999/xlink" x="0px" y="0px"
	 viewBox="0 0 512 512" style="enable-background:new 0 0 512 512;" xml:space="preserve">
<path style="fill:#006DF4;" d="M480.755,31.269C460.591,11.105,433.781,0,405.264,0c-28.517,0-55.328,11.105-75.492,31.27
	L31.244,329.797c-41.626,41.627-41.626,109.358,0.001,150.983C52.058,501.594,79.398,512,106.737,512s54.678-10.406,75.492-31.22
	l298.527-298.527C522.382,140.627,522.382,72.896,480.755,31.269z"/>
<path style="fill:#0052B7;" d="M31.255,480.79C52.067,501.597,79.403,512,106.737,512c27.34,0,54.678-10.406,75.492-31.22
	l298.527-298.527c41.622-41.623,41.626-109.347,0.01-150.974L31.255,480.79z"/>
<g>
	<path style="fill:#5CE6EB;" d="M420.148,212.63L299.396,91.878l-21.226,21.226l41.509,41.509l-10.849,10.849
		c-10.42,10.42-10.42,27.315,0,37.735c10.42,10.42,27.315,10.42,37.735,0l10.849-10.849l41.509,41.508L420.148,212.63z"/>
	<path style="fill:#5CE6EB;" d="M203.171,346.589c10.42-10.42,10.42-27.315,0-37.735c-10.42-10.42-27.315-10.42-37.735,0
		l-10.849,10.849l-41.508-41.508L91.854,299.42l120.752,120.752l21.226-21.226l-41.508-41.508L203.171,346.589z"/>
</g>
<g>
	
		<rect x="245.777" y="43.479" transform="matrix(0.7071 0.7071 -0.7071 0.7071 145.735 -169.4904)" style="fill:#FFDB2D;" width="63.368" height="95.387"/>
	
		<rect x="59.458" y="229.799" transform="matrix(0.7071 0.7071 -0.7071 0.7071 222.9116 16.8286)" style="fill:#FFDB2D;" width="63.368" height="95.387"/>
</g>
<g>
	<path style="fill:#00B4CC;" d="M203.171,346.589c10.42-10.42,10.42-27.315,0-37.735l0,0l-50.942,50.942l60.377,60.377
		l21.226-21.226l-41.508-41.508L203.171,346.589z"/>
	<path style="fill:#00B4CC;" d="M359.654,152.136l-50.939,50.939c0.039,0.04,0.075,0.081,0.114,0.12
		c10.42,10.42,27.315,10.42,37.735,0l10.849-10.849l41.509,41.508l21.226-21.226L359.654,152.136z"/>
</g>
<g>
	
		<rect x="373.149" y="202.88" transform="matrix(-0.7071 0.7071 -0.7071 -0.7071 884.2855 102.8453)" style="fill:#FFB62D;" width="95.387" height="63.368"/>
	
		<rect x="202.862" y="373.197" transform="matrix(0.7071 0.7071 -0.7071 0.7071 366.3112 -42.5729)" style="fill:#FFB62D;" width="63.368" height="95.387"/>
</g>
<g>
</g>
<g>
</g>
<g>
</g>
<g>
</g>
<g>
</g>
<g>
</g>
<g>
</g>
<g>
</g>
<g>
</g>
<g>
</g>
<g>
</g>
<g>
</g>
<g>
</g>
<g>
</g>
<g>
</g>
</svg>
