<?xml version="1.0" encoding="iso-8859-1"?>
<!-- Generator: Adobe Illustrator 19.0.0, SVG Export Plug-In . SVG Version: 6.00 Build 0)  -->
<svg version="1.1" id="Layer_1" xmlns="http://www.w3.org/2000/svg" xmlns:xlink="http://www.w3.org/1999/xlink" x="0px" y="0px"
	 viewBox="0 0 511.998 511.998" style="enable-background:new 0 0 511.998 511.998;" xml:space="preserve">
<polygon style="fill:#1EB8E8;" points="443.726,387.775 492.687,387.775 461.185,308.209 412.223,308.209 "/>
<path style="fill:#FF6F43;" d="M428.793,229.453H177.082c-10.564,0-20.248-5.888-25.11-15.267l-27.041-52.168
	c-8.488-16.374-26.912-25.01-44.927-21.058l-40.445,8.873l78.376,149.653l343.248,2.257v-39.897
	C461.185,243.956,446.683,229.453,428.793,229.453z"/>
<polygon style="opacity:0.1;enable-background:new    ;" points="461.185,308.209 412.223,308.209 432.439,359.267 481.4,359.267 
	"/>
<path style="fill:#8FE5F7;" d="M492.687,276.707H131.155L55.426,130.609c-3.006-5.799-10.143-8.063-15.942-5.058l-25.614,13.276
	c-5.799,3.006-8.063,10.143-5.058,15.942l83.074,160.269c4.513,8.707,13.501,14.171,23.306,14.171h377.493
	c6.531,0,11.826-5.295,11.826-11.826v-28.85C504.513,282.002,499.218,276.707,492.687,276.707z"/>
<circle style="fill:#1EB8E8;" cx="124.965" cy="343.349" r="44.424"/>
<circle cx="124.945" cy="343.329" r="19.342"/>
<path d="M38.431,195.615c0,0-22.967-44.307-22.977-44.327c-1.056-2.037-0.268-4.719,1.844-5.813c0,0,25.58-13.26,25.614-13.277
	c2.088-1.082,4.734-0.235,5.813,1.844l75.729,146.097c1.291,2.492,3.863,4.057,6.671,4.057H301.44c4.151,0,7.514-3.364,7.514-7.514
	s-3.363-7.514-7.514-7.514H135.695L73.904,149.961l7.681-1.685c14.672-3.217,29.736,3.845,36.645,17.177l27.041,52.169
	c6.178,11.919,18.356,19.324,31.781,19.324h191.515c4.151,0,7.514-3.364,7.514-7.514s-3.363-7.514-7.514-7.514H177.054
	c-7.789,0-14.854-4.296-18.439-11.21l-27.04-52.168c-10.033-19.356-31.909-29.612-53.209-24.94l-11.621,2.549
	c0,0-4.673-9.015-4.675-9.018c-4.848-9.353-16.71-13.125-26.071-8.271c0,0-25.598,13.269-25.613,13.276
	c-9.341,4.841-13.114,16.729-8.272,26.071l22.978,44.327c1.91,3.685,6.448,5.122,10.128,3.213
	C38.903,203.835,40.342,199.299,38.431,195.615z"/>
<path d="M511.998,317.358v-28.85c0-10.664-8.675-19.341-19.341-19.341H468.67v-7.347c0-22.004-17.902-39.907-39.907-39.907h-30.138
	c-4.151,0-7.514,3.364-7.514,7.514c0,4.15,3.363,7.514,7.514,7.514h30.138c13.717,0,24.878,11.16,24.878,24.878v7.347H331.498
	c-4.151,0-7.514,3.364-7.514,7.514s3.363,7.514,7.514,7.514h129.658h31.502c2.378,0,4.312,1.935,4.312,4.312v28.85
	c0,2.378-1.935,4.312-4.312,4.312H172.153c-0.119-0.261-0.248-0.517-0.372-0.775c-0.02-0.041-0.039-0.082-0.059-0.123
	c-6.279-13.052-17.658-22.751-31.225-27.004c-0.071-0.022-0.142-0.045-0.213-0.067c-15.819-4.876-33.546-1.754-46.729,8.256
	l-40.611-78.346c-1.91-3.686-6.448-5.122-10.128-3.214c-3.685,1.91-5.123,6.445-3.213,10.129l42.944,82.85
	c-6.001,8.471-9.544,18.802-9.544,29.95c0,28.639,23.3,51.938,51.939,51.938s51.938-23.299,51.938-51.938
	c0-2.246-0.159-4.454-0.438-6.627h238.961l21.307,53.817c1.135,2.865,3.904,4.748,6.987,4.748c0,0,48.902,0,48.961,0
	c5.216,0,8.907-5.428,6.987-10.28l-19.117-48.284h12.13C503.323,336.699,511.998,328.023,511.998,317.358z M124.941,380.236
	c-20.353,0-36.911-16.558-36.911-36.91c0-17.476,12.824-32.852,29.992-36.21c3.262-0.638,6.611-0.839,9.926-0.572
	c15.628,1.254,29.274,13.033,32.903,28.26c3.583,15.031-2.882,31.034-15.797,39.459C139.094,378.15,132.056,380.236,124.941,380.236
	z M481.601,380.236h-32.797L431.567,336.7h32.797L481.601,380.236z"/>
<g>
</g>
<g>
</g>
<g>
</g>
<g>
</g>
<g>
</g>
<g>
</g>
<g>
</g>
<g>
</g>
<g>
</g>
<g>
</g>
<g>
</g>
<g>
</g>
<g>
</g>
<g>
</g>
<g>
</g>
</svg>
