<?xml version="1.0" encoding="iso-8859-1"?>
<!-- Generator: Adobe Illustrator 19.0.0, SVG Export Plug-In . SVG Version: 6.00 Build 0)  -->
<svg version="1.1" id="Capa_1" xmlns="http://www.w3.org/2000/svg" xmlns:xlink="http://www.w3.org/1999/xlink" x="0px" y="0px"
	 viewBox="0 0 449.306 449.306" style="enable-background:new 0 0 449.306 449.306;" xml:space="preserve">
<g>
	<g>
		<path style="fill:#FFBF67;" d="M227.265,10.449c118.302,0,214.204,95.902,214.204,214.204s-95.902,214.204-214.204,214.204
			c57.469-3.135,103.445-97.698,103.445-214.204S284.735,13.584,227.265,10.449z"/>
		<path style="fill:#F23B9F;" d="M227.265,10.449c57.469,3.135,103.445,97.698,103.445,214.204s-45.976,211.069-103.445,214.204
			h-5.224c-57.469-3.135-103.445-97.698-103.445-214.204S164.571,13.584,222.041,10.449H227.265z"/>
		<path style="fill:#4ED9DA;" d="M222.041,10.449c-57.469,3.135-103.445,97.698-103.445,214.204s45.976,211.069,103.445,214.204
			c-118.302,0-214.204-95.902-214.204-214.204S103.739,10.449,222.041,10.449z"/>
	</g>
	<path style="fill:#083863;" d="M449.306,224.653C449.306,102.4,350.041,0,227.788,0h-6.269C99.265,0,0,102.4,0,224.653
		s99.265,224.653,221.518,224.653h6.269C350.041,449.306,449.306,346.906,449.306,224.653z M20.898,224.653
		c0.472-89.769,59.35-168.768,145.241-194.873c-35.004,38.661-57.992,111.282-57.992,194.873s22.988,156.212,57.992,194.873
		C80.248,393.421,21.369,314.422,20.898,224.653z M224.653,428.408h-2.09c-51.722-2.612-93.518-94.041-93.518-203.755
		s41.796-198.531,93.518-203.755h4.18c51.722,2.612,93.518,94.041,93.518,203.755s-41.796,201.143-93.518,203.755H224.653z
		 M283.167,419.527c35.004-38.661,57.992-111.282,57.992-194.873S318.171,68.441,283.167,29.78
		c107.626,31.86,169.046,144.935,137.186,252.561C400.812,348.353,349.18,399.985,283.167,419.527L283.167,419.527z"/>
</g>
<g>
</g>
<g>
</g>
<g>
</g>
<g>
</g>
<g>
</g>
<g>
</g>
<g>
</g>
<g>
</g>
<g>
</g>
<g>
</g>
<g>
</g>
<g>
</g>
<g>
</g>
<g>
</g>
<g>
</g>
</svg>
