<?xml version="1.0" encoding="iso-8859-1"?>
<!-- Generator: Adobe Illustrator 19.0.0, SVG Export Plug-In . SVG Version: 6.00 Build 0)  -->
<svg version="1.1" id="Capa_1" xmlns="http://www.w3.org/2000/svg" xmlns:xlink="http://www.w3.org/1999/xlink" x="0px" y="0px"
	 viewBox="0 0 512 512" style="enable-background:new 0 0 512 512;" xml:space="preserve">
<path style="fill:#3C3A41;" d="M406,256c-57.9,0-105,47.1-105,105s47.1,105,105,105s106-47.1,106-105S463.9,256,406,256z M406,436
	c-41.4,0-75-33.6-75-75s33.6-75,75-75s76,33.6,76,75S447.4,436,406,436z"/>
<path style="fill:#57555C;" d="M106,256C48.1,256,0,303.1,0,361s48.1,105,106,105s105-47.1,105-105S163.9,256,106,256z M106,436
	c-41.4,0-76-33.6-76-75s34.6-75,76-75s75,33.6,75,75S147.4,436,106,436z"/>
<path style="fill:#E50027;" d="M405.985,376c-6.519,0-12.524-4.292-14.414-10.884l-60-210c-1.289-4.541-0.366-9.434,2.49-13.198
	l59.429-78.164C401.942,52.636,415.331,46,429.306,46H497c8.291,0,15,6.709,15,15s-6.709,15-15,15h-67.694
	c-4.658,0-9.126,2.212-11.938,5.918l-54.888,72.188l57.949,202.778c2.271,7.954-2.344,16.26-10.313,18.545
	C408.739,375.81,407.362,376,405.985,376z"/>
<path style="fill:#FD003A;" d="M166,256c-8.291,0-15-6.709-15-15v-60c0-8.291,6.709-15,15-15s15,6.709,15,15v60
	C181,249.291,174.291,256,166,256z"/>
<g>
	<path style="fill:#E50027;" d="M286,436h-30c-5.684,0-10.869-3.208-13.418-8.291L226,394.545
		c-3.706-7.412-0.703-16.421,6.709-20.127c7.383-3.677,16.406-0.703,20.127,6.709L265.272,406H286c8.291,0,15,6.709,15,15
		S294.291,436,286,436z"/>
	<path style="fill:#E50027;" d="M247.196,354.789c-2.417,0-4.878-0.586-7.163-1.831c-7.266-3.955-9.961-13.066-5.991-20.347
		l53.789-98.789c3.94-7.266,13.022-9.976,20.347-5.991c7.266,3.955,9.961,13.066,5.991,20.347l-53.789,98.789
		C257.67,351.962,252.514,354.789,247.196,354.789z"/>
</g>
<g>
	<path style="fill:#FD003A;" d="M386.8,241c0,8.399-6.899,15-15,15H175.3l-45,90H196c8.401,0,15,6.599,15,15c0,8.399-6.599,15-15,15
		h-90c-5.099,0-9.901-2.701-12.9-7.2c-2.701-4.2-2.701-9.901-0.601-14.401l60-120C155.2,229.3,160.3,226,166,226h205.8
		C379.9,226,386.8,232.599,386.8,241z"/>
	<path style="fill:#FD003A;" d="M356.201,162.1C353.2,164.799,349.6,166,346,166c-4.2,0-8.101-1.8-11.1-4.801l-72.599-80.4
		C259.3,77.8,255.399,76,251.201,76H196c-8.401,0-15-6.601-15-15c0-8.401,6.599-15,15-15h55.201c12.599,0,24.899,5.4,33.3,14.7
		l72.599,80.099C362.8,147.1,362.199,156.7,356.201,162.1z"/>
</g>
<path style="fill:#57555C;" d="M211,196h-75c-16.569,0-30-13.431-30-30l0,0c0-16.569,13.431-30,30-30h45c24.853,0,45,20.147,45,45
	l0,0C226,189.284,219.284,196,211,196z"/>
<g>
	<path style="fill:#E50027;" d="M251.201,76H226V46h25.201c12.599,0,24.899,5.4,33.3,14.7l72.599,80.099
		c5.7,6.301,5.099,15.901-0.899,21.301C353.2,164.799,349.6,166,346,166c-4.2,0-8.101-1.8-11.1-4.801l-72.599-80.4
		C259.3,77.8,255.399,76,251.201,76z"/>
	<path style="fill:#E50027;" d="M386.8,241c0,8.399-6.899,15-15,15H226v-30h145.8C379.9,226,386.8,232.599,386.8,241z"/>
</g>
<path style="fill:#AEADB3;" d="M226,316c-19.501,0-36.301,12.599-42.299,30c-1.8,4.799-2.701,9.6-2.701,15s0.901,10.199,2.701,15
	c5.999,17.399,22.798,30,42.299,30c24.901,0,45-20.101,45-45C271,336.099,250.901,316,226,316z"/>
<path style="fill:#8B8892;" d="M271,361c0,24.899-20.099,45-45,45v-90C250.901,316,271,336.099,271,361z"/>
<g>
</g>
<g>
</g>
<g>
</g>
<g>
</g>
<g>
</g>
<g>
</g>
<g>
</g>
<g>
</g>
<g>
</g>
<g>
</g>
<g>
</g>
<g>
</g>
<g>
</g>
<g>
</g>
<g>
</g>
</svg>
