<?xml version="1.0" encoding="iso-8859-1"?>
<!-- Generator: Adobe Illustrator 19.0.0, SVG Export Plug-In . SVG Version: 6.00 Build 0)  -->
<svg version="1.1" id="Capa_1" xmlns="http://www.w3.org/2000/svg" xmlns:xlink="http://www.w3.org/1999/xlink" x="0px" y="0px"
	 viewBox="0 0 512 512" style="enable-background:new 0 0 512 512;" xml:space="preserve">
<path style="fill:#1DE8F1;" d="M451,45v75l-30,31H91l-30-31V45c0-24.901,20.099-45,45-45h300C430.901,0,451,20.099,451,45z"/>
<path style="fill:#00C7D6;" d="M451,45v75l-30,31H256V0h150C430.901,0,451,20.099,451,45z"/>
<path style="fill:#E5E5E5;" d="M451,120v347c0,24.899-20.099,45-45,45H106c-24.901,0-45-20.101-45-45V120H451z"/>
<path style="fill:#C8C6CD;" d="M451,120v347c0,24.899-20.099,45-45,45H256V120H451z"/>
<path style="fill:#AEADB3;" d="M256,181c-74.399,0-135,60.599-135,135c0,74.399,60.601,135,135,135s135-60.601,135-135
	C391,241.599,330.399,181,256,181z"/>
<path style="fill:#8B8892;" d="M391,316c0,74.399-60.601,135-135,135V181C330.399,181,391,241.599,391,316z"/>
<path style="fill:#57555C;" d="M348.701,267.7L291.7,319.9h-69.9l-58.5-52.2C181,234.099,215.501,211,256,211
	C296.201,211,331,234.099,348.701,267.7z"/>
<path style="fill:#1DE8F1;" d="M361,316c0,57.9-47.1,105-105,105s-105-47.1-105-105c0-5.4,0.901-10.501,1.5-15.601
	c1.8-11.7,5.7-22.8,10.8-32.699c20.7-0.901,41.102,6.299,58.5,22.2c10.501,9.6,22.5,14.399,34.2,14.7
	c12.299,0.3,24.6-4.501,35.7-14.7c16.8-15.3,36.899-22.8,57.001-22.2c5.099,9.899,9,20.698,10.8,32.098
	C360.099,305.2,361,310.3,361,316z"/>
<g>
	<circle style="fill:#D9D9D9;" cx="376" cy="75" r="15"/>
	<circle style="fill:#D9D9D9;" cx="316" cy="75" r="15"/>
</g>
<path style="fill:#2B292C;" d="M348.701,267.7L291.7,319.9H256V211C296.201,211,331,234.099,348.701,267.7z"/>
<path style="fill:#00C7D6;" d="M359.5,299.799C360.099,305.2,361,310.3,361,316c0,57.9-47.1,105-105,105V304.6
	c12.299,0.3,24.6-4.501,35.7-14.7c16.8-15.3,36.899-22.8,57.001-22.2C353.8,277.599,357.7,288.399,359.5,299.799z"/>
<g>
</g>
<g>
</g>
<g>
</g>
<g>
</g>
<g>
</g>
<g>
</g>
<g>
</g>
<g>
</g>
<g>
</g>
<g>
</g>
<g>
</g>
<g>
</g>
<g>
</g>
<g>
</g>
<g>
</g>
</svg>
