<?xml version="1.0" encoding="iso-8859-1"?>
<!-- Generator: Adobe Illustrator 19.0.0, SVG Export Plug-In . SVG Version: 6.00 Build 0)  -->
<svg version="1.1" id="Capa_1" xmlns="http://www.w3.org/2000/svg" xmlns:xlink="http://www.w3.org/1999/xlink" x="0px" y="0px"
	 viewBox="0 0 512.001 512.001" style="enable-background:new 0 0 512.001 512.001;" xml:space="preserve">
<path style="fill:#5C5C5C;" d="M158,342.307v-0.196h-5.005c-0.03-11.5-2.698-22.39-7.428-32.1l4.521-2.197
	c-5.143-10.584-12.745-20.057-21.983-27.395l-3.143,3.957c-8.562-6.807-18.656-11.755-29.679-14.241l1.103-4.905
	c-11.467-2.577-23.662-2.551-35.119,0.079l1.125,4.901c-11.007,2.535-21.081,7.524-29.614,14.371l-3.158-3.94
	c-9.208,7.38-16.768,16.889-21.864,27.497l4.527,2.174C7.617,320,5,330.854,5,342.307c0,0.038,0.003,0.076,0.003,0.113L0,342.43
	c0.018,11.999,2.663,23.527,7.859,34.263l4.522-2.189c4.865,10.026,11.937,18.783,20.568,25.666L29.8,404.12
	c9.247,7.368,20.206,12.637,31.696,15.239l1.11-4.904c5.277,1.199,10.759,1.853,16.394,1.853c5.672,0,11.188-0.663,16.497-1.877
	l1.117,4.902c11.484-2.617,22.436-7.902,31.672-15.283l-3.154-3.946c8.622-6.896,15.684-15.663,20.535-25.698l4.523,2.181
	C155.373,365.844,158,354.31,158,342.307z M35,342.307c0-24.262,19.738-44,44-44s44,19.738,44,44c0,24.262-19.738,44-44,44
	S35,366.57,35,342.307z"/>
<path style="fill:#CCCCCC;" d="M338.888,207.023l-183.017,41.751l8.569,51.411L59.197,335.765l9.607,28.42l114.997-38.876h68.165
	c34.251,0,65.86-18.599,82.494-48.54l30.653-55.176L338.888,207.023z"/>
<path style="fill:#AAAAAA;" d="M338.888,207.023L256,225.932v99.279c32.683-1.398,62.481-19.683,78.459-48.443l30.653-55.176
	L338.888,207.023z"/>
<path d="M512.001,342.43l-5.003-0.008c0-0.038,0.003-0.075,0.003-0.113c0-11.454-2.617-22.307-7.282-31.996l4.526-2.174
	c-5.096-10.608-12.656-20.117-21.864-27.497l-3.159,3.94c-8.533-6.846-18.607-11.836-29.614-14.371l1.125-4.901
	c-11.456-2.63-23.651-2.656-35.119-0.079l1.103,4.905c-11.023,2.486-21.117,7.434-29.679,14.241l-3.143-3.957
	c-9.239,7.338-16.84,16.811-21.983,27.395l4.521,2.197c-4.74,9.729-7.41,20.644-7.429,32.17l-5.003,0.014v0.112
	c0,12.002,2.627,23.535,7.808,34.28l4.523-2.181c4.851,10.035,11.914,18.802,20.535,25.698l-3.154,3.946
	c9.236,7.381,20.188,12.665,31.672,15.283l1.117-4.902c5.309,1.214,10.826,1.877,16.497,1.877c5.635,0,11.117-0.654,16.394-1.853
	l1.11,4.904c11.49-2.601,22.45-7.871,31.696-15.239l-3.149-3.951c8.631-6.883,15.703-15.64,20.568-25.666l4.522,2.189
	C509.338,365.956,511.983,354.428,512.001,342.43z M389,342.307c0-24.262,19.738-44,44-44s44,19.738,44,44c0,24.262-19.738,44-44,44
	C408.739,386.307,389,366.57,389,342.307z"/>
<path style="fill:#FC0023;" d="M356.159,182.889l-10.236,3.412l2.638-11.974l-82.111-18.092l-85.574,21.394L13.431,146.231
	l-5.528,29.486l51.764,9.706v50.712l121.905,36.572l184.073-61.358c26.188-8.729,54.058-9.335,80.601-1.751l8.241-28.846
	C422.108,171.501,388.106,172.238,356.159,182.889z"/>
<path style="fill:#BD001A;" d="M356.159,182.889l-10.236,3.412l2.638-11.974l-82.111-18.092L256,158.846v89.051l109.645-36.548
	c26.188-8.729,54.058-9.335,80.601-1.751l8.241-28.846C422.108,171.501,388.106,172.238,356.159,182.889z"/>
<polygon style="fill:#006DF4;" points="424.275,360.355 289.915,122.641 256,122.641 256,92.641 307.419,92.641 450.393,345.594 "/>
<polygon points="324.376,122.641 307.419,92.641 256,92.641 256,122.641 "/>
<polygon style="fill:#338BF6;" points="59.197,154.813 59.667,185.423 181.435,208.033 181.435,177.52 "/>
<g>
</g>
<g>
</g>
<g>
</g>
<g>
</g>
<g>
</g>
<g>
</g>
<g>
</g>
<g>
</g>
<g>
</g>
<g>
</g>
<g>
</g>
<g>
</g>
<g>
</g>
<g>
</g>
<g>
</g>
</svg>
