<?xml version="1.0" encoding="iso-8859-1"?>
<!-- Generator: Adobe Illustrator 19.0.0, SVG Export Plug-In . SVG Version: 6.00 Build 0)  -->
<svg version="1.1" id="Capa_1" xmlns="http://www.w3.org/2000/svg" xmlns:xlink="http://www.w3.org/1999/xlink" x="0px" y="0px"
	 viewBox="0 0 512 512" style="enable-background:new 0 0 512 512;" xml:space="preserve">
<path style="fill:#FEDB41;" d="M497,392c8.401,0,15-6.601,15-15V257c0-24.901-20.099-45-45-45h-60c-8.401,0-15,6.599-15,15
	c0,8.399-6.599,15-15,15s-15-6.601-15-15c0-8.401-6.599-15-15-15c-24.901,0-45,20.099-45,45v210c0,24.899,20.099,45,45,45h120
	c24.901,0,45-20.101,45-45v-30c0-8.401-6.599-15-15-15s-15-6.601-15-15C482,398.599,488.599,392,497,392z"/>
<path style="fill:#FCBF29;" d="M482,407c0,8.399,6.599,15,15,15s15,6.599,15,15v30c0,24.899-20.099,45-45,45h-60V212h60
	c24.901,0,45,20.099,45,45v120c0,8.399-6.599,15-15,15S482,398.599,482,407z"/>
<path style="fill:#D9D9D9;" d="M151,15v60c0,8.399-6.599,15-15,15s-15-6.601-15-15V15c0-8.401,6.599-15,15-15S151,6.599,151,15z"/>
<path style="fill:#C8C6CD;" d="M136,90V0c8.401,0,15,6.599,15,15v60C151,83.399,144.401,90,136,90z"/>
<path style="fill:#1DE8F1;" d="M166,60h-60c-24.901,0-46,20.099-46,45v31c0,8.399,6.599,15,15,15h122c8.401,0,15-6.601,15-15v-31
	C212,80.099,190.901,60,166,60z"/>
<path style="fill:#1BD9DE;" d="M197,151h-61V60h30c24.901,0,46,20.099,46,45v31C212,144.399,205.401,151,197,151z"/>
<path style="fill:#E5E5E5;" d="M272,187.299V212l-30.601,30H30.601L0,212v-24.701C0,150.7,29.7,121,66.301,121H205.7
	C242.3,121,272,150.7,272,187.299z"/>
<path style="fill:#D9D9D9;" d="M272,187.299V212l-30.601,30H136V121h69.699C242.3,121,272,150.7,272,187.299z"/>
<path style="fill:#E5E5E5;" d="M272,422v23.699C272,482.3,242.3,512,205.699,512H66.301C29.7,512,0,482.3,0,445.699V422l15-30
	h233.899L272,422z"/>
<path style="fill:#D9D9D9;" d="M248.899,392L272,422v23.699C272,482.3,242.3,512,205.699,512H136V392H248.899z"/>
<path style="fill:#1DE8F1;" d="M242,308.299V325.7c0,9.901,3.9,18.9,10.499,25.8c13.2,12.9,19.501,31.201,19.501,46.8V422H0v-23.701
	c0-15.298,6.301-33.9,19.501-46.8C26.1,344.599,30,335.6,30,325.699v-17.401c0-9.899-3.9-18.9-10.499-25.8
	C6.301,269.599,0,251.3,0,235.699V212h272v23.699c0,15.3-6.301,33.9-19.501,46.8C245.9,289.399,242,298.4,242,308.299z"/>
<path style="fill:#1BD9DE;" d="M136,212h136v23.699c0,15.3-6.301,33.9-19.501,46.8C245.9,289.399,242,298.4,242,308.299V325.7
	c0,9.901,3.9,18.9,10.499,25.8c13.2,12.9,19.501,31.201,19.501,46.8V422H136V212z"/>
<circle style="fill:#FE9923;" cx="437" cy="287" r="15"/>
<g>
	<circle style="fill:#FEA832;" cx="377" cy="347" r="15"/>
	<path style="fill:#FEA832;" d="M407,396.2c-4.501-2.701-9.6-4.2-15-4.2c-16.5,0-30,13.5-30,30s13.5,30,30,30
		c5.4,0,10.499-1.5,15-4.2c9-5.099,15-14.7,15-25.8S416,401.3,407,396.2z"/>
</g>
<path style="fill:#E5E5E5;" d="M136,272c-24.901,0-46,20.099-46,45c0,24.899,21.099,45,46,45s46-20.101,46-45
	C182,292.099,160.901,272,136,272z"/>
<path style="fill:#FE9923;" d="M422,422c0,11.1-6,20.7-15,25.8v-51.6C416,401.3,422,410.9,422,422z"/>
<path style="fill:#D9D9D9;" d="M136,362v-90c24.901,0,46,20.099,46,45C182,341.899,160.901,362,136,362z"/>
<path style="fill:#1DE8F1;" d="M267.499,55.499C264.5,58.5,260.9,60,257,60s-7.8-1.5-10.499-4.501
	C229.999,39.3,207.499,30,184.701,30H75c-8.401,0-15-6.601-15-15c0-8.401,6.599-15,15-15h109.701
	C215.6,0,245.6,12.599,267.499,34.499C273.5,40.199,273.5,49.799,267.499,55.499z"/>
<path style="fill:#1BD9DE;" d="M184.701,30H136V0h48.701C215.6,0,245.6,12.599,267.499,34.499c6,5.7,6,15.3,0,21
	C264.5,58.5,260.9,60,257,60s-7.8-1.5-10.499-4.501C229.999,39.3,207.499,30,184.701,30z"/>
<g>
</g>
<g>
</g>
<g>
</g>
<g>
</g>
<g>
</g>
<g>
</g>
<g>
</g>
<g>
</g>
<g>
</g>
<g>
</g>
<g>
</g>
<g>
</g>
<g>
</g>
<g>
</g>
<g>
</g>
</svg>
